<?xml version="1.0" encoding="UTF-8" standalone="no"?>
<svg
   fill="#000000"
   width="20.586678"
   height="25"
   viewBox="0 0 0.8234671 1"
   version="1.1"
   id="svg1"
   sodipodi:docname="logo_linux.svg"
   inkscape:version="1.4 (e7c3feb1, 2024-10-09)"
   xmlns:inkscape="http://www.inkscape.org/namespaces/inkscape"
   xmlns:sodipodi="http://sodipodi.sourceforge.net/DTD/sodipodi-0.dtd"
   xmlns="http://www.w3.org/2000/svg"
   xmlns:svg="http://www.w3.org/2000/svg"
   xmlns:rdf="http://www.w3.org/1999/02/22-rdf-syntax-ns#"
   xmlns:cc="http://creativecommons.org/ns#"
   xmlns:dc="http://purl.org/dc/elements/1.1/">
  <defs
     id="defs1" />
  <sodipodi:namedview
     id="namedview1"
     pagecolor="#ffffff"
     bordercolor="#000000"
     borderopacity="0.25"
     inkscape:showpageshadow="2"
     inkscape:pageopacity="0.0"
     inkscape:pagecheckerboard="0"
     inkscape:deskcolor="#d1d1d1"
     inkscape:zoom="0.91125"
     inkscape:cx="308.91632"
     inkscape:cy="375.30864"
     inkscape:window-width="1664"
     inkscape:window-height="1035"
     inkscape:window-x="0"
     inkscape:window-y="25"
     inkscape:window-maximized="0"
     inkscape:current-layer="svg1" />
  <title
     id="title1">linux</title>
  <path
     d="m 0.3757989,0.235906 c -8.335e-4,0.0024 -0.0047,0.00203 -0.0069,0.00273 -0.00197,0.00103 -0.00357,0.00283 -0.00583,0.00283 -0.00207,0 -0.0054,-8.335e-4 -0.00567,-0.00283 -4.001e-4,-0.00273 0.00367,-0.00553 0.00623,-0.00553 0.00167,-8.001e-4 0.0036,-0.00123 0.00563,-0.00123 0.00187,0 0.00363,3.667e-4 0.00523,0.00107 l -10e-5,-3.33e-5 c 7.335e-4,3e-4 0.00127,0.001 0.00127,0.00183 0,10e-5 0,1.667e-4 -3.33e-5,2.667e-4 v 0 8.335e-4 h 1.333e-4 z m 0.022937,0 v -9.002e-4 c -2.667e-4,-8.334e-4 5.334e-4,-0.00173 0.0012,-0.00207 0.00153,-6.668e-4 0.00333,-0.00107 0.00523,-0.00107 0.00203,0 0.00397,4.667e-4 0.00567,0.00127 l -6.66e-5,-3.34e-5 c 0.00263,0 0.00667,0.0028 0.00623,0.00563 -2.333e-4,0.00203 -0.00353,0.00273 -0.00563,0.00273 -0.0023,0 -0.00383,-0.0018 -0.00587,-0.00283 -0.00217,-7.668e-4 -0.00607,-3.334e-4 -0.0068,-0.0027 z m 0.045074,0.065944 c -0.017736,0.011235 -0.038706,0.019137 -0.061177,0.022204 l -8.001e-4,10e-5 C 0.3616298,0.322984 0.3432598,0.315884 0.3282568,0.304551 l 2.334e-4,1.667e-4 c -0.0064,-0.00557 -0.011669,-0.011169 -0.015536,-0.013969 -0.00683,-0.00557 -0.006,-0.013869 -0.00307,-0.013869 0.00453,6.668e-4 0.00537,0.00557 0.0083,0.00833 0.004,0.00273 0.00897,0.00833 0.015003,0.013869 0.013235,0.010935 0.029972,0.018036 0.048341,0.019437 l 3.001e-4,3.33e-5 c 0.021804,-0.0019 0.04164,-0.0089 0.058777,-0.019737 l -5.335e-4,3.334e-4 c 0.00813,-0.00563 0.018537,-0.013902 0.027005,-0.01947 0.0065,-0.00567 0.0062,-0.011135 0.011635,-0.011135 0.00533,6.667e-4 0.00143,0.00557 -0.00613,0.013836 -0.0082,0.00627 -0.01757,0.012702 -0.027271,0.01867 l -0.00147,8.334e-4 z M 0.1455605,0.67988 h 4e-4 c 0.0023,0 0.00457,2.334e-4 0.00677,6.334e-4 l -2.333e-4,-3.33e-5 c 0.018136,0.00467 0.033072,0.015936 0.04244,0.031038 l 1.667e-4,3e-4 0.037906,0.069312 1.333e-4,1.333e-4 c 0.015236,0.025771 0.031605,0.048075 0.049908,0.068645 L 0.2826844,0.849475 c 0.016336,0.017336 0.027338,0.039873 0.030305,0.064878 l 6.67e-5,5.334e-4 v 2.667e-4 c -4.001e-4,0.027238 -0.020437,0.049708 -0.046541,0.053876 l -3.001e-4,3.33e-5 c -0.00667,0.00103 -0.014402,0.0016 -0.022237,0.0016 -0.028571,0 -0.055309,-0.00777 -0.078246,-0.021337 l 7.001e-4,4.001e-4 C 0.1313248,0.9350225 0.0905847,0.925921 0.0479109,0.9246541 H 0.0474108 C 0.0350087,0.9238206 0.0242069,0.9174862 0.0173724,0.908118 l -6.66e-5,-10e-5 c -0.0018,-0.0058 -0.00283,-0.012469 -0.00283,-0.019403 0,-0.011669 0.00293,-0.022637 0.00813,-0.032205 l -1.667e-4,3.667e-4 V 0.85661 l 10e-5,-1.333e-4 c 0.00137,-0.00627 0.00217,-0.013502 0.00217,-0.020904 0,-0.00913 -0.0012,-0.01797 -0.00347,-0.026371 l 1.667e-4,7.002e-4 c -0.00137,-0.005 -0.00217,-0.010768 -0.00217,-0.016736 0,-0.00807 0.00143,-0.015769 0.0041,-0.022904 l -1.333e-4,4.668e-4 c 0.00667,-0.013902 0.016503,-0.016669 0.028738,-0.022204 0.014602,-0.00443 0.027304,-0.011135 0.038373,-0.01977 l -2.667e-4,2e-4 h 6.67e-5 v -10e-5 c 0.010668,-0.011168 0.018536,-0.025037 0.027838,-0.034906 0.0065,-0.0083 0.016403,-0.013669 0.027571,-0.014002 h 6.67e-5 z M 0.5961022,0.67785 c -3.33e-5,5.668e-4 -3.33e-5,0.00127 -3.33e-5,0.00197 0,0.024771 0.014969,0.046041 0.036373,0.055276 l 4.001e-4,1.667e-4 c 0.0016,10e-5 0.00347,1.667e-4 0.00533,1.667e-4 0.027705,0 0.052509,-0.012369 0.069178,-0.031905 l 10e-5,-1.334e-4 0.0088,-4.001e-4 c 0.00177,-2.667e-4 0.0038,-4e-4 0.00587,-4e-4 0.011369,0 0.021737,0.0044 0.029438,0.011602 l -3.34e-5,-3.33e-5 1.334e-4,1.333e-4 c 0.0083,0.010035 0.014069,0.022437 0.016236,0.036073 l 6.67e-5,4.334e-4 c 0.00183,0.016836 0.00793,0.032005 0.017236,0.044674 L 0.78503,0.7952066 c 0.013869,0.011869 0.023504,0.028338 0.026438,0.047041 l 6.66e-5,4.334e-4 1.334e-4,-3.001e-4 v 7.335e-4 l -1.334e-4,-5.001e-4 c -6.334e-4,0.010902 -0.0077,0.016503 -0.020737,0.024804 -0.039473,0.016569 -0.073379,0.038606 -0.1025838,0.065611 l 2.334e-4,-2.001e-4 c -0.02027,0.026404 -0.050042,0.044641 -0.084114,0.049542 l -7.001e-4,6.67e-5 c -0.00247,3.334e-4 -0.00533,5.334e-4 -0.00823,5.334e-4 -0.025604,0 -0.047608,-0.015469 -0.057209,-0.03754 l -1.667e-4,-4e-4 -2e-4,-1.334e-4 c -0.0031,-0.00953 -0.00487,-0.020503 -0.00487,-0.031872 0,-0.013869 0.00263,-0.027104 0.00747,-0.039273 l -2.667e-4,7.335e-4 c 0.0078,-0.02227 0.014502,-0.048875 0.018937,-0.076279 l 3.667e-4,-0.00277 c 5.334e-4,-0.027071 0.00347,-0.053109 0.0086,-0.078346 l -4.667e-4,0.00277 c 0.00283,-0.01727 0.012702,-0.031805 0.026471,-0.04084 L 0.594302,0.678888 0.596172,0.6779879 Z M 0.5050537,0.3046508 c 0.020003,0.071579 0.044641,0.1334222 0.074912,0.191932 l -0.00263,-0.00557 c 0.020437,0.036339 0.036339,0.078513 0.045441,0.1231872 l 4.667e-4,0.0028 c 3e-4,0 6.668e-4,0 0.00103,0 0.00723,0 0.014236,9.669e-4 0.020904,0.0028 l -5.668e-4,-1.334e-4 c 0.00367,-0.013169 0.00577,-0.028271 0.00577,-0.043874 0,-0.047541 -0.01957,-0.090548 -0.051109,-0.1213203 l -3.33e-5,-3.33e-5 c -0.00917,-0.00833 -0.00967,-0.013969 -0.00513,-0.013969 0.032372,0.030338 0.056309,0.069278 0.068178,0.1131522 l 4.001e-4,0.0017 c 0.00297,0.010969 0.00467,0.023571 0.00467,0.036573 0,0.011702 -0.00137,0.023104 -0.00397,0.034006 l 2.001e-4,-0.001 c 0.00247,0.00127 0.00533,0.00223 0.00837,0.00277 l 2e-4,3.33e-5 c 0.043007,0.022237 0.058877,0.039073 0.051242,0.064044 v -0.0018 c -0.0025,-1.333e-4 -0.005,0 -0.0075,0 h -6.668e-4 c 0.0063,-0.01947 -0.00757,-0.034372 -0.044374,-0.051009 -0.038106,-0.016669 -0.068578,-0.014002 -0.073746,0.01937 -3.667e-4,0.00163 -6.334e-4,0.00353 -7.334e-4,0.0055 v 1.001e-4 c -0.00243,0.001 -0.00533,0.00193 -0.00833,0.0026 l -3.667e-4,6.67e-5 c -0.016936,0.011202 -0.029005,0.028638 -0.032972,0.048975 l -6.66e-5,4.667e-4 c -0.00493,0.023171 -0.00803,0.050008 -0.00853,0.077446 v 4e-4 1.334e-4 c -0.00303,0.021237 -0.00767,0.04024 -0.013936,0.058443 l 6.668e-4,-0.0022 c -0.032772,0.026804 -0.075046,0.043007 -0.1211535,0.043007 -0.037673,0 -0.072812,-0.010835 -0.1024504,-0.029572 L 0.31004,0.8641421 C 0.30517,0.8557121 0.299605,0.8484061 0.293271,0.8419051 l 3.33e-5,3.33e-5 c -0.00323,-0.00533 -0.00703,-0.0099 -0.011402,-0.013836 l -6.67e-5,-3.34e-5 c 0.0069,0 0.013569,-0.00103 0.01987,-0.00293 l -5.001e-4,1.334e-4 c 0.006,-0.00283 0.010602,-0.00773 0.013035,-0.013736 l 6.67e-5,-1.667e-4 c 6.001e-4,-0.0031 9.668e-4,-0.00663 9.668e-4,-0.010268 0,-0.014836 -0.00583,-0.028271 -0.015369,-0.038206 l 3.33e-5,3.34e-5 C 0.2792828,0.7375563 0.254612,0.7164194 0.2267073,0.70025 l -0.00127,-6.667e-4 c -0.02237,-0.012935 -0.039307,-0.033172 -0.047675,-0.05741 L 0.177529,0.6414398 c -0.0031,-0.010602 -0.0049,-0.022804 -0.0049,-0.035406 0,-0.011769 0.00157,-0.02317 0.00447,-0.034039 l -2.001e-4,9.002e-4 c 0.012569,-0.043807 0.030705,-0.082047 0.054009,-0.1165528 l -9.334e-4,0.00143 c 0.00447,-0.0027 0.00153,0.00563 -0.017003,0.040573 -0.015803,0.023771 -0.025237,0.053009 -0.025237,0.084447 0,0.028005 0.00747,0.054242 0.020537,0.076879 l -4e-4,-7.334e-4 c 0.00173,-0.043641 0.011502,-0.084581 0.027805,-0.121987 l -8.335e-4,0.00217 C 0.270016,0.4757098 0.296653,0.4020646 0.310689,0.3240183 l 6.668e-4,-0.00437 c 0.002,0.0015 0.00903,0.00563 0.012035,0.0084 0.00907,0.00553 0.015836,0.013869 0.024571,0.01937 0.0089,0.00867 0.021103,0.014002 0.034506,0.014002 7.002e-4,0 0.0014,0 0.0021,-3.33e-5 h -10e-5 c 0.00163,1.333e-4 0.00313,2.667e-4 0.00457,2.667e-4 0.015302,-3.001e-4 0.029572,-0.0044 0.041974,-0.011402 l -4.334e-4,2.333e-4 c 0.012069,-0.00557 0.02167,-0.013902 0.030838,-0.016669 h 2.001e-4 c 0.017836,-0.00483 0.032772,-0.015136 0.043341,-0.028971 l 1.334e-4,-2e-4 z M 0.388401,0.2154026 c 10e-5,0 2e-4,0 3e-4,0 0.01897,0 0.036473,0.00623 0.050575,0.016769 l -2.334e-4,-1.667e-4 c 0.012602,0.0078 0.027138,0.014436 0.042507,0.019137 l 0.00133,3.333e-4 h 1.333e-4 c 0.0082,0.00367 0.014969,0.00937 0.019803,0.016469 l 10e-5,1.666e-4 v -0.00547 c 0.00153,0.00307 0.00247,0.0067 0.00247,0.010535 0,0.00327 -6.668e-4,0.00637 -0.00183,0.0092 l 6.67e-5,-1.667e-4 c -0.0096,0.016903 -0.025171,0.029472 -0.043774,0.034939 l -5.334e-4,1.333e-4 v 6.67e-5 c -0.011169,0.00563 -0.02087,0.013869 -0.032272,0.01937 -0.011669,0.007 -0.025704,0.011135 -0.04074,0.011135 -5.001e-4,0 -0.001,0 -0.0015,0 h 6.66e-5 c -7.334e-4,3.33e-5 -0.0016,6.67e-5 -0.00247,6.67e-5 -0.0058,0 -0.011402,-0.00103 -0.016536,-0.00297 l 3.334e-4,1e-4 c -0.0053,-0.0029 -0.00967,-0.00563 -0.013902,-0.00857 l 4.668e-4,3.334e-4 C 0.345192,0.3301832 0.336859,0.3238112 0.328125,0.3179772 l -8.668e-4,-5.334e-4 v -2e-4 h -2e-4 c -0.012502,-0.00663 -0.022337,-0.016803 -0.028405,-0.029205 l -1.667e-4,-4.001e-4 c -9.002e-4,-0.00223 -0.0014,-0.00483 -0.0014,-0.00753 0,-0.00727 0.00373,-0.013669 0.00937,-0.017403 l 6.66e-5,-3.33e-5 c 0.00933,-0.00563 0.015836,-0.011302 0.020137,-0.014002 0.00433,-0.00307 0.00597,-0.00423 0.00733,-0.00547 h 6.67e-5 V 0.243067 c 0.00893,-0.011302 0.02077,-0.01997 0.034406,-0.024871 l 5.334e-4,-1.667e-4 c 0.0058,-0.00167 0.012469,-0.00263 0.01937,-0.0027 h 3.34e-5 z M 0.331325,0.1443236 h 0.0015 c 0.00627,1.333e-4 0.012035,0.00223 0.016703,0.00567 l -6.67e-5,-6.67e-5 c 0.00597,0.0053 0.010835,0.011735 0.014169,0.019003 l 1.333e-4,3.667e-4 c 0.00377,0.00817 0.0061,0.01767 0.00637,0.027671 v 1e-4 1.667e-4 c 1.334e-4,0.00153 2.001e-4,0.0033 2.001e-4,0.00507 0,0.0021 -10e-5,0.0042 -3.001e-4,0.00627 l 3.34e-5,-2.667e-4 v 0.00333 c -0.00123,3e-4 -0.00233,7.334e-4 -0.00347,0.001 -0.00637,0.00263 -0.011735,0.00543 -0.016836,0.0086 l 4.667e-4,-2.667e-4 c 2.667e-4,-0.00183 4.001e-4,-0.00393 4.001e-4,-0.00607 0,-0.00177 -10e-5,-0.00353 -3.001e-4,-0.00527 l 3.34e-5,2.001e-4 v -6.335e-4 c -6.001e-4,-0.00513 -0.0018,-0.00983 -0.00357,-0.014269 l 1.334e-4,3.667e-4 c -0.00137,-0.0044 -0.00377,-0.00813 -0.0069,-0.011102 v 0 c -0.00183,-0.00167 -0.00427,-0.0027 -0.00697,-0.0027 -2.334e-4,0 -4.667e-4,0 -7.001e-4,3.34e-5 h 3.33e-5 -8.668e-4 c -0.00343,3.667e-4 -0.0063,0.0025 -0.00773,0.00543 l -3.34e-5,6.67e-5 c -0.00257,0.0031 -0.00433,0.00693 -0.005,0.011135 v 1.333e-4 c -7.668e-4,0.00287 -0.00117,0.00617 -0.00117,0.00957 0,0.00147 6.66e-5,0.00293 2.333e-4,0.00437 v -1.667e-4 6.334e-4 c 5.334e-4,0.00513 0.00173,0.00987 0.00347,0.014269 l -1.334e-4,-3.668e-4 c 0.0014,0.0044 0.00377,0.00817 0.0069,0.011169 v 0 c 4e-4,4e-4 8.668e-4,7.334e-4 0.0014,0.001 h 3.33e-5 c -0.00277,0.00177 -0.00517,0.00363 -0.00737,0.0057 l 3.34e-5,-3.34e-5 c -0.0015,0.00133 -0.00333,0.00233 -0.00537,0.0028 l -10e-5,3.33e-5 c -0.0041,-0.0049 -0.0079,-0.010402 -0.011168,-0.016203 L 0.3052494,0.230533 c -0.00377,-0.00817 -0.0061,-0.017636 -0.00647,-0.027671 v -1.333e-4 c -1.333e-4,-0.0016 -2e-4,-0.00347 -2e-4,-0.00537 0,-0.00803 0.0013,-0.015769 0.00367,-0.023004 l -1.334e-4,5.334e-4 c 0.00247,-0.0086 0.0065,-0.016036 0.011869,-0.02237 l -6.67e-5,1e-4 c 0.00423,-0.005 0.010435,-0.00817 0.017403,-0.00833 h 3.33e-5 z m 0.1234205,-0.00247 h 5.335e-4 c 3.33e-5,0 6.66e-5,0 1.333e-4,0 0.00917,0 0.01757,0.0031 0.024304,0.0083 l -10e-5,-6.67e-5 c 0.00763,0.0059 0.013769,0.013336 0.01807,0.021837 l 1.667e-4,3.667e-4 c 0.00403,0.00887 0.00653,0.01917 0.0069,0.030038 v 1.334e-4 c 0,-8.335e-4 2.334e-4,-0.00167 2.334e-4,-0.0025 v 0.00437 l -1.667e-4,-8.669e-4 -1.667e-4,-0.001 c -1.001e-4,0.010668 -0.00237,0.020737 -0.00643,0.029905 l 2e-4,-4.668e-4 c -0.00207,0.00543 -0.00507,0.010102 -0.00887,0.013969 v 0 c -0.001,-6.001e-4 -0.00223,-0.00117 -0.00347,-0.00167 l -2e-4,-6.67e-5 c -0.0045,-0.0014 -0.00843,-0.0033 -0.012002,-0.00563 l 1.667e-4,10e-5 c -0.00257,-0.00107 -0.00563,-0.002 -0.0088,-0.0027 l -3.667e-4,-6.67e-5 c 0.0027,-0.00253 0.0052,-0.00523 0.0075,-0.0081 l 1.334e-4,-1.667e-4 c 0.0021,-0.00493 0.0034,-0.010635 0.00367,-0.016636 v -1.001e-4 -8.334e-4 c 0,-2.667e-4 0,-5.335e-4 0,-8.335e-4 0,-0.00567 -9.335e-4,-0.011102 -0.00267,-0.016169 l 1.001e-4,3.668e-4 c -0.0021,-0.0053 -0.00467,-0.00987 -0.00773,-0.014036 l 1.334e-4,1.667e-4 c -0.0029,-0.00293 -0.00673,-0.00493 -0.011035,-0.0055 h -1e-4 -6.668e-4 c -3.33e-5,0 -10e-5,0 -1.333e-4,0 -0.0044,0 -0.00833,0.00217 -0.010735,0.00547 l -3.33e-5,3.34e-5 c -0.00387,0.00377 -0.0068,0.00843 -0.00847,0.013669 l -6.66e-5,2.334e-4 c -0.0021,0.0049 -0.00347,0.010602 -0.00373,0.016536 v 10e-5 8.001e-4 c 6.67e-5,0.004 3.667e-4,0.00787 9.001e-4,0.011635 l -6.66e-5,-5.001e-4 c -0.00803,-0.0028 -0.018236,-0.00563 -0.025304,-0.0084 -4.001e-4,-0.00243 -6.668e-4,-0.0053 -7.335e-4,-0.00823 v -1e-4 -8.335e-4 c -3.33e-5,-6.667e-4 -3.33e-5,-0.00143 -3.33e-5,-0.0022 0,-0.010802 0.0023,-0.021037 0.00647,-0.030272 l -2e-4,4.667e-4 c 0.00353,-0.0093 0.00977,-0.016936 0.017736,-0.022104 l 1.667e-4,-1e-4 c 0.0068,-0.0052 0.015402,-0.00833 0.024737,-0.00833 v 0 z M 0.4327083,0 C 0.4262383,0 0.4195723,3.334e-4 0.4127053,8.668e-4 0.2366426,0.0147358 0.2833504,0.2011335 0.28065,0.2632439 0.27898,0.3107849 0.262847,0.3542259 0.236476,0.3896649 l 4.334e-4,-6.001e-4 c -0.046908,0.053409 -0.085181,0.1158193 -0.1117186,0.1841307 l -0.00143,0.00423 c -0.0086,0.022837 -0.013602,0.049208 -0.013602,0.076746 0,0.0095 6.001e-4,0.01887 0.00173,0.028038 l -1e-4,-0.0011 c -0.00187,0.00153 -0.00343,0.0034 -0.00453,0.00553 l -3.33e-5,10e-5 c -0.010835,0.011168 -0.018737,0.025004 -0.027638,0.034939 -0.00943,0.00723 -0.020503,0.012935 -0.032505,0.01647 l -7.001e-4,1.667e-4 c -0.015469,0.00463 -0.028071,0.014736 -0.035839,0.028038 l -1.667e-4,3e-4 c -0.00347,0.00707 -0.0055,0.015369 -0.0055,0.024171 0,3.334e-4 0,6.334e-4 0,9.668e-4 v -3.33e-5 c 6.66e-5,0.00793 8.668e-4,0.015636 0.00243,0.023104 L 0.0071733,0.814095 c 0.00187,0.0073 0.00293,0.015703 0.00293,0.024337 0,0.00567 -4.668e-4,0.011235 -0.00137,0.01667 L 0.0088,0.8545019 C 0.00323,0.8649369 0,0.8773389 0,0.8905079 c 0,0.00927 0.0016,0.018136 0.00457,0.026371 l -1.667e-4,-5.334e-4 c 0.0091,0.012935 0.022871,0.02207 0.038807,0.024971 l 3.667e-4,6.66e-5 c 0.042474,0.00357 0.081714,0.012435 0.1187198,0.026004 l -0.00313,-0.001 c 0.023271,0.013836 0.051309,0.022004 0.081214,0.022004 0.0098,0 0.019403,-8.668e-4 0.028738,-0.00257 l -9.668e-4,1.333e-4 c 0.022237,-0.00503 0.040373,-0.019537 0.050142,-0.038973 l 2e-4,-4.334e-4 c 0.024471,-1.334e-4 0.051242,-0.011202 0.094149,-0.013902 0.029105,-0.0024 0.065578,0.011135 0.1073513,0.00833 0.00123,0.0053 0.00287,0.00994 0.00493,0.014302 l -2e-4,-4.334e-4 1.333e-4,1.334e-4 C 0.5376592,0.981797 0.5645303,1 0.5956688,1 c 0.0027,0 0.00537,-1.334e-4 0.008,-4.001e-4 l -3.334e-4,3.34e-5 c 0.038373,-0.00567 0.071312,-0.025604 0.093782,-0.054109 l 2.333e-4,-3.001e-4 c 0.028105,-0.025604 0.06091,-0.046708 0.096849,-0.061777 l 0.00223,-8.334e-4 c 0.014402,-0.00637 0.024737,-0.019503 0.027004,-0.035306 l 3.34e-5,-2.334e-4 c -0.00197,-0.023137 -0.013069,-0.043307 -0.029605,-0.057209 l -1.333e-4,-1e-4 v -0.00403 L 0.7935954,0.785602 C 0.7864654,0.7746 0.7814604,0.761531 0.7795594,0.747529 l -6.67e-5,-5.001e-4 c -0.00177,-0.017103 -0.00927,-0.032205 -0.020503,-0.043574 v 0 h -1.334e-4 c -0.00247,-0.00223 -0.00513,-0.0028 -0.00783,-0.00563 -0.0022,-0.00157 -0.00493,-0.00253 -0.0079,-0.00267 h -3.33e-5 c 0.0065,-0.02007 0.010268,-0.043141 0.010268,-0.067111 0,-0.031339 -0.00643,-0.061177 -0.018036,-0.088248 l 5.668e-4,0.00147 C 0.7124216,0.4855143 0.6819165,0.4375396 0.6448104,0.3955993 l 4.667e-4,5.667e-4 C 0.6084376,0.3600933 0.5843336,0.3111185 0.5803329,0.2565761 L 0.5802996,0.255876 C 0.5813996,0.166228 0.5901396,3.667e-4 0.4326417,1.334e-4 Z"
     id="path1"
     style="stroke-width:1" />
  <metadata
     id="metadata1">
    <rdf:RDF>
      <cc:Work
         rdf:about="">
        <dc:title>linux</dc:title>
      </cc:Work>
    </rdf:RDF>
  </metadata>
</svg>
